<svg xmlns="http://www.w3.org/2000/svg" width="1254" height="1254" preserveAspectRatio="none" style="display:block" viewBox="0 0 2048 2048"><defs><linearGradient id="d" x1="746.453" x2="745.437" y1="340.021" y2="313.059" gradientUnits="userSpaceOnUse"><stop class="stop0" offset="0" stop-color="#57922a"/><stop class="stop1" offset="1" stop-color="#497632"/></linearGradient><linearGradient id="c" x1="831.691" x2="867.897" y1="577.872" y2="545.174" gradientUnits="userSpaceOnUse"><stop class="stop0" offset="0" stop-color="#af77c2"/><stop class="stop1" offset="1" stop-color="#bd95ca"/></linearGradient><linearGradient id="b" x1="765.604" x2="756.416" y1="403.588" y2="396.991" gradientUnits="userSpaceOnUse"><stop class="stop0" offset="0" stop-color="#f8e6f8"/><stop class="stop1" offset="1" stop-color="#fff"/></linearGradient><linearGradient id="a" x1="637.633" x2="645.178" y1="1045.68" y2="1041.43" gradientUnits="userSpaceOnUse"><stop class="stop0" offset="0" stop-color="#668e39"/><stop class="stop1" offset="1" stop-color="#8eac54"/></linearGradient></defs><path fill="#e5d4b3" d="M1547.55 646.338c14.45-11.498 36.9-13.04 54.72-11.591 52.78 4.294 137.54 64.135 145.49 119.402.85 10.059 1.45 18.181-1.47 27.909-10.54 35.071-36.07 42.413-68.25 41.914-39.17 72.783-83.01 153.471-119.66 227.428 30.46 8.53 93.51 23.32 112.61 51.17 5.61 8.17 5.39 28.34 4.17 38.6-1.69 156.21-66.57 323.8-179.19 433.26-39.07 37.97-67.22 56.83-113.32 83.51-.01 8.1.3 19.42-.5 27.23.1 14.47-2.32 24.79-12.87 35.54-12.07 12.28-29.09 20.27-44.73 26.88-81.27 34.37-188.86 43.13-276.42 43.17-72.59.03-238.37-14.2-291.669-67.83-8.87-8.93-13.116-18.9-13.595-31.43-1.087-7.66-.64-19.28-.563-27.32-21.239-9.87-64.538-37.1-82.839-51.45 3.839-10.44 12.643-25.71 18.091-35.55 29.417-53.14 41-110.65 36.973-171.23-2.329-35.04-7.671-71.79-1.596-106.77 1.755-10.11 5.843-22 8.884-32.05-37.527 10.47-81.209 56.75-101.338 88.5-37.574 59.28-47.262 113.28-33.242 180.93-16.748-10.88-56.466-68.36-68.595-85.48l-1.013 6.69c-.634-6.08-.728-12.67-1.261-18.85-5.781-67.03-31.899-132.14-70.489-186.92-5.321-7.56-11.038-15.06-16.378-22.74.913-5.73-4.504-41.85-5.326-50.86-1.969-21.58-2.201-37.59-2.096-59.41-1.623-31.84 47.021-43.16 69.146-54.02l.927-.47c-27.579-23.81-58.86-49.59-95.33-56.59-9.782-1.88-21.949-2.49-32.082-3.37 22.738-31.114 71.141-46.276 107.827-50.125 87.067-9.134 162.648 24.023 228.952 76.885 9.225 8.25 16.921 15.26 25.579 24.1 20.919 23.71 36.199 44.6 49.475 73.95 4.805 10.62 7.974 23.05 13.269 32.95 2.127 3.97 11.814 12.53 15.256 16.74 11.217 1.09 21.976 1.11 33.106 2.05 6.367.62 10.562.87 16.95.87 10.435 1.09 19.32 1.25 29.772 1.4 5.486.66 10.182.69 15.296 1.22 3.432 1.17 14.987.41 20.23.74 4.636.27 9.776.68 14.376.73 7.661 0 20.995-.44 28.056.89 23.409-.3 46.797.88 70.167.98 5.56.02 21.93.23 26.3-.61 3.31.19 7.34.54 10.59.56l16.23-.1c11.12-.09 42.51.19 52.54-1.42 23.14-27.64 46.55-55.06 70.23-82.25 16.17-18.83 34.85-41.8 51.63-59.64-11.06-.16-22.11-.64-33.14-1.44l-2.92-4.03c5.72-3.56 37.92 9.02 51.37-18.02l.72.88c5.62-2.43 30.6-33.479 36.59-40.35 72.9-84.571 147-168.094 222.29-250.544-19.33-28.382-18.1-63.932 12.07-84.618"/><path fill="#f4e6cb" d="M1547.55 646.338c14.45-11.498 36.9-13.04 54.72-11.591 52.78 4.294 137.54 64.135 145.49 119.402.85 10.059 1.45 18.181-1.47 27.909-10.54 35.071-36.07 42.413-68.25 41.914-39.17 72.783-83.01 153.471-119.66 227.428-4.73 8.34-10.49 21.05-15.01 28.28-5.77 10.36-32.62 61.79-34.3 69.47-32.55 9.33-94.47 17.09-129.2 21.31-22.12 2.88-46.22 4.63-68.53 6.55-57.42 5.15-115 8.27-172.63 9.34 23.14-27.64 46.55-55.06 70.23-82.25 16.17-18.83 34.85-41.8 51.63-59.64-11.06-.16-22.11-.64-33.14-1.44l-2.92-4.03c5.72-3.56 37.92 9.02 51.37-18.02l.72.88c5.62-2.43 30.6-33.479 36.59-40.35 72.9-84.571 147-168.094 222.29-250.544-19.33-28.382-18.1-63.932 12.07-84.618"/><path fill="#e5d4b3" d="M1547.55 646.338c14.45-11.498 36.9-13.04 54.72-11.591 52.78 4.294 137.54 64.135 145.49 119.402.85 10.059 1.45 18.181-1.47 27.909-10.54 35.071-36.07 42.413-68.25 41.914-39.17 72.783-83.01 153.471-119.66 227.428-4.73 8.34-10.49 21.05-15.01 28.28-5.77 10.36-32.62 61.79-34.3 69.47-32.55 9.33-94.47 17.09-129.2 21.31 16.31-23.28 33.01-45.69 49.08-69.29a6143 6143 0 0 0 85.41-131.618c36.65-57.723 72.74-118.227 109.98-175.14-22.75-14.033-68.89-46.525-88.86-63.456-19.33-28.382-18.1-63.932 12.07-84.618"/><path fill="#f4e6cb" d="M1547.55 646.338c14.45-11.498 36.9-13.04 54.72-11.591 52.78 4.294 137.54 64.135 145.49 119.402l-.98.278c-.8 1.865-1.55 3.987-2.37 5.789-15.77 34.722-63.08 23.763-90.06 11.758-21.08-9.384-42.96-22.103-61.46-36.031-22.37-16.838-64.24-49.784-48.3-82.296 1.26-2.566 2.04-4.594 2.96-7.309"/><path fill="#fbf0d9" d="M364.739 1004.54c22.738-31.114 71.141-46.276 107.827-50.125 87.067-9.134 162.648 24.023 228.952 76.885 9.225 8.25 16.921 15.26 25.579 24.1 20.919 23.71 36.199 44.6 49.475 73.95 4.805 10.62 7.974 23.05 13.269 32.95 2.127 3.97 11.814 12.53 15.256 16.74 11.217 1.09 21.976 1.11 33.106 2.05 6.367.62 10.562.87 16.95.87 10.435 1.09 19.32 1.25 29.772 1.4 5.486.66 10.182.69 15.296 1.22 3.432 1.17 14.987.41 20.23.74 4.636.27 9.776.68 14.376.73 7.661 0 20.995-.44 28.056.89 23.409-.3 46.797.88 70.167.98 5.56.02 21.93.23 26.3-.61 3.31.19 7.34.54 10.59.56l16.23-.1c11.12-.09 42.51.19 52.54-1.42 57.63-1.07 115.21-4.19 172.63-9.34 22.31-1.92 46.41-3.67 68.53-6.55 34.73-4.22 96.65-11.98 129.2-21.31 1.68-7.68 28.53-59.11 34.3-69.47 4.52-7.23 10.28-19.94 15.01-28.28 30.46 8.53 93.51 23.32 112.61 51.17 5.61 8.17 5.39 28.34 4.17 38.6-.39-6.26-.26-14.09-.32-20.49-26.7 45.2-167.16 66.53-217.86 74.13a2677 2677 0 0 1-349.48 26.49 3051 3051 0 0 1-394.408-16.73c-68.012-7.84-140.373-18.44-206.179-37.14-29.118-8.27-69.739-21.13-84.835-48.44-1.623-31.84 47.021-43.16 69.146-54.02l.927-.47c-27.579-23.81-58.86-49.59-95.33-56.59-9.782-1.88-21.949-2.49-32.082-3.37"/><path fill="#56802d" d="M364.739 1004.54c22.738-31.114 71.141-46.276 107.827-50.125 87.067-9.134 162.648 24.023 228.952 76.885 9.225 8.25 16.921 15.26 25.579 24.1 20.919 23.71 36.199 44.6 49.475 73.95 4.805 10.62 7.974 23.05 13.269 32.95 2.127 3.97 11.814 12.53 15.256 16.74-40.597-3.35-115.271-9.12-152.883-18.77-5.132-2.19-10.911-4.3-16.197-6.2-41.122-14.81-76.402-36.81-111.041-63.29-10.906-8.36-22.072-17.63-32.825-26.28-27.579-23.81-58.86-49.59-95.33-56.59-9.782-1.88-21.949-2.49-32.082-3.37"/><path fill="#91b255" d="M660.594 1086.73c-43.954-30.9-104.09-55.86-154.489-74.12-8.001-2.89-16.105-4.96-24.099-8.17l.604-1.18c4.136-.04 17.916 3.91 22.505 5.14 55.83 14.9 102.931 39.39 152.823 67.29 4.491 3.48 8.106 8.05 12.297 8.5 15.011 5.98 90.916 62.99 97.412 75.25-1.903.21-1.274.35-3.609-1.36-31.919-23.43-64.528-46.98-97.956-68.29-31.011 1.07-43.763 2.61-75.858-.33l1.773-1.47c21.643.29 46.277-1.07 68.597-1.26"/><path fill="url(#a)" d="M657.938 1075.69c2.824-10.31-39.373-62.31-39.589-68.07 10.683 7.49 45.608 62.46 51.886 76.57-4.191-.45-7.806-5.02-12.297-8.5"/><path fill="#6f973f" d="M590.224 1089.46c-4.15-.2-6.533.03-10.24-1.62l.851-.75c5.106-.35 6.113-.13 11.162.9z"/><path fill="#cdbc99" d="M1543.37 1079.68c12.48 4.26 53.64 17.51 45.71 34.55-8.34 17.9-62.31 30.94-80.01 34.92 1.68-7.68 28.53-59.11 34.3-69.47M524.976 1090.78c34.639 26.48 69.919 48.48 111.041 63.29 5.286 1.9 11.065 4.01 16.197 6.2-3.256.01-6.465-.13-9.695-.55-27.484-3.6-117.418-21.33-132.651-42.71-1.989-2.79-2.835-5.95-2.124-9.34 1.7-8.11 10.854-12.8 17.232-16.89M1381.77 1658.28c-.07 9.05-.24 17.84.38 26.89.1 14.47-2.32 24.79-12.87 35.54-12.07 12.28-29.09 20.27-44.73 26.88-81.27 34.37-188.86 43.13-276.42 43.17-72.59.03-238.37-14.2-291.669-67.83-8.87-8.93-13.116-18.9-13.595-31.43.658-7.08.285-19.17.28-26.62a562 562 0 0 0 65.333 26.7c170.028 56.45 411.951 47.69 573.291-33.3"/><path fill="#56802d" d="M569.268 1634.92c-26.718-26.72-45.104-56.8-69.311-85.09-7.461-8.71-31.967-21.97-42.543-29.11a298.6 298.6 0 0 1-95.308-104.05c-53.794-97.2-46.214-201.21-29.259-307.56.336-2.1 1.092-2.19 2.694-2.91 4.147 1.56 10.112 12.88 12.692 16.9 24.148 37.58 53.056 71.67 81.267 106.16 5.34 7.68 11.057 15.18 16.378 22.74 38.59 54.78 64.708 119.89 70.489 186.92.533 6.18.627 12.77 1.261 18.85l1.013-6.69c12.129 17.12 51.847 74.6 68.595 85.48-14.02-67.65-4.332-121.65 33.242-180.93 20.129-31.75 63.811-78.03 101.338-88.5-3.041 10.05-7.129 21.94-8.884 32.05-6.075 34.98-.733 71.73 1.596 106.77 4.027 60.58-7.556 118.09-36.973 171.23-5.448 9.84-14.252 25.11-18.091 35.55-6.339 17.67-1.868 33.1 6.027 49.36a140.6 140.6 0 0 0 36.332 45.94c19.384 15.91 49.914 30.18 72.738 40.78 69.785 32.4 141.538 64.85 193.522 123.73 27.284 30.91 54.027 74.16 56.917 116.42.2 2.82-1.79 5.52-3.78 7.26-3.8-2.46-9.25-17.45-11.55-22.69a307.5 307.5 0 0 0-26.194-47.65 325.3 325.3 0 0 0-72.47-77.58c-55.998-43.75-116.778-66.68-179.162-99.05-20.799-10.8-44.892-27.67-66.357-34.88-22.258-7.48-55.525-14.61-78.105-5.36-14.7 6.03-25.444 16.85-38.002 26.45-29.767 22.73-64.135 38.37-101.459 42.53-35.935 4.02-65.616-2.26-99.497-12.58-14.605-4.45-32.555-8.98-47.592-10.18-12.244-.97-28.159 1.53-40.606 3.07 12.073-19.06 46.718-45.76 66.769-58.58 61.007-39.01 131.7-52.59 202.004-33.8 22.202 5.93 38.853 15.43 58.545 21.34 12.673 3.81 37.644 3.94 54.042 7.63-10.869-7.49-30.646-23.03-41.373-29.29-30.359-17.72-75.172-36.79-109.593-42.19-15.519-2.44-42.879 4.8-58.05 7.69a271.58 271.58 0 0 1-158.646-16.57c-72.133-30.87-123.285-89.74-164.027-154.74-10.324-16.47-24.875-39.32-32.117-57.28 24.601 8.27 41.203 17.69 68.068 23.61 73.405 16.16 148.385 21.79 214.612 60.81 32.26 19.01 59.536 40.82 83.742 69.53 8.845 10.14 33.468 40.62 43.642 46.33 23.966 13.47 54.585 19.44 81.424 32.13"/><path fill="#fff" d="m517.628 1457.77 1.013-6.69c12.129 17.12 51.847 74.6 68.595 85.48 6.517 25.76 18.87 50.56 33.945 72.35 3.75 5.43 14.538 18.28 16.936 23.4 10.966 23.43 17.065 39.91 32.633 61.19a486.7 486.7 0 0 1-76.547-55.23c-27.952-25.11-76.022-75.56-77.005-113.44-.545-21.01 1.658-44.2.43-67.06"/><path fill="#91b255" d="M367.046 1233.74c4.426 8.65 11.913 35.43 15.958 46.29 12.382 33.25 24.382 66.87 38.631 99.39a1334 1334 0 0 0 46.513 94.81c4.604 8.71 21.681 38.54 24.451 45.83-2.256-1.18-1.921-1.41-3.707-3.66-13.08-18.77-25.691-35.92-36.346-56.43-6.239-12.01-12.743-23.88-18.855-35.96-1.194-2.36-7.406-6.94-9.432-9.82 2.109.45 1.352.23 3.275.83l1.276.41c-5.104-14.85-12.749-30.43-18.36-45.23-15.449-40.75-35.308-94.02-43.404-136.46M159.351 1469.07c6.568 3.05 29.903 18.56 38.344 23.43a1115 1115 0 0 0 81.263 41.77 1535 1535 0 0 0 105.089 43.76c17.647 6.63 48.73 16.76 64.043 23.82-4.029-.43-7.729-1.26-11.655-2.22-90.748-22.1-178.045-62.65-255.744-114.21-4.858-3.22-19.624-11.83-21.34-16.35M668.588 1358.8c.218 3.41-2.902 12.21-4.038 15.78-10.576 33.22-17.281 67.14-21.68 101.77a602 602 0 0 0-4.692 78.91c.112 7.42 2.052 39.87 1.484 44.29l-.898-1.96c-16.687-71.09-.718-172.65 29.824-238.79M372.863 1726.39c67.397-16.24 125.503-29.38 195.08-29.5-9.227 2.6-19.965 4.09-29.553 5.56-39.662 6.12-79.385 11.55-118.861 18.87-14.989 2.78-30.527 4.37-45.444 7.4z"/><path fill="#6f973f" d="M374.085 1728.72c-6.568 1.28-15.902 3.68-22.182 2.95 2.672-1.7 16.889-4.39 20.96-5.28z"/><path fill="#56802d" d="M981.555 75.57c22.885-1.597 51.225-1.24 74.175-.483 230.05 7.74 447.63 106.498 604.91 274.57 167.3 178.799 268.93 451.409 260.06 696.123-9.87 272.23-133.34 514.51-330.78 698.99a1558 1558 0 0 1-126.02 105.26c-119.72 90.34-233.62 149.65-387.35 144.48 23.61-37.88 61.92-66.13 102.51-83.76 4.66-2.02 9.31-3.97 13.7-6.53-53.12 10.25-79.72 21.54-125.53 49.7 2.91-7.63 6.41-15.02 10.44-22.12 41.22-73.53 119.3-100.6 199.54-95.76 41.49 2.5 76.04 9.93 117.09-2.23 37.74-11.18 73.32-30.9 106.27-52.18 122.29-78.95 224.26-191.24 295.07-318.04 117.99-210.55 146.54-459.65 79.24-691.443a875 875 0 0 0-13.86-44.172c-79.69-232.553-239.09-430.777-461.97-539.44-205.98-100.14-443.322-114.286-659.743-39.325-233.727 80.812-410.581 248.773-518.06 470.004a930.04 930.04 0 0 0-62.874 647.066 1047 1047 0 0 0 29.649 94.58c7.524 19.96 16.962 40.3 23.835 60.17-11.884-12.45-24.489-35.06-32.678-50.68-47.245-90.12-71.303-203.86-75.731-304.95-10.6-257.353 81.104-508.439 255.071-698.384C519.171 190.872 743.381 85.991 981.555 75.57"/><path fill="#56802d" d="M1387.07 475.022c-3.83-7.08-10.17-12.264-14.56-19.05-11.79-18.401-14.08-41.079-9.19-62.063 5.84-25.101 25.8-29.688 35.4-3.819 5.46 14.706 7.33 31.409 4.5 46.962-2.07 11.366-7.93 23.159-11.45 34.261l.96-.921c7.49-7.312 10.94-20.317 14.34-28.335 6.05-14.265 36.07-42.355 52.15-40.376 30.45 3.745.47 46.564-12.03 54.867-19.09 12.681-24.96 16.559-46.17 18.161-9.56 12.863-15.39 23.839-22.96 37.837l9.19-2.89c16.06-17.962 29.67-27.254 54.72-29.603 23.72-2.226 37.69 12.089 17.1 30.134-18.67 16.359-48.74 21.522-71.61 9.763l-15.16 4.77c-10.83 20.11-26.27 51.91-34.22 73.27 9.7-12.669 22.25-24.272 38.24-27.939 7.04-1.613 14.31 3.907 14.05 11.058-.95 26.368-31.71 45.109-55.07 45.831-2.87.1-5.73.091-8.59-.028-4.76 9.888-8.95 19.566-13.31 29.622l1.93-.427c12.19-2.8 18.89-7.88 29.57-12.245 15.06-6.151 40.63-5.128 54.09 3.856 28.46 19.001-10.07 34.032-27.84 33.786-18.82-.26-33.17-2.876-46.09-17.34-6.81 1.522-9.95 2.167-16.46 4.762-18.6 44.543-37.16 101.302-56.9 143.696 6.73-5.899 11.27-10.281 17.45-16.767.98-15.079 4.59-24.327 15.79-35.681 8.25-8.362 25.43-11.055 22.53 6.097-1.53 9.081-9.18 21.126-16.98 25.933-10.29 6.754-13.35 5.743-20.48 15.717a374 374 0 0 1 34.76-9.576c11.86-57.702 71.94-50.801 36.95-13.024 8.09-.499 12.95-.651 21.3-.066 15.37 1.076 33.04 13.788 15.54 27.53-11.57 9.083-29.97 8.344-44.4 6.399 26.97 29.733-27.69 35.111-35.69-8.633-12.81 2.635-25.2 6.031-37.1 11.594 6.87 3.227 16.65 7.317 13.62 16.569-9 8.494-21.02-2.007-27.52-8.38-13.08 19.881-28.58 69.54-40.01 93.405l10.87-6.913c-6.89-7.195 7.01-21.756 16.62-18.167l.85 2.134c-1.4 6.422-3.04 7.593-7.4 12.595 5.36-1.822 10.49-3.426 15.64-5.801 1.14-7.362 2.04-12.873 5.81-19.618 4.08-7.299 16.55-22.095 25.72-14.501 2.87 6.531 1.01 11.097-1.88 17.234 69.91-18.835 27.1 57.356-26.85 26.975-7.82 2.697-14.41 5.27-22.07 8.432 7.52 1.68 19.96 7.265 22.76 13.365 7.05 15.313-13.16 18.172-23.07 13.519-7.85-3.69-17.71-12.353-21.42-13.102-6.74 6.731-25.98 53.884-32.24 66.219 7.09-.01 24.21-.14 29.57 4.55l.13 2.05c-1.71 1.94-7.21 7.32-7.1 9.11 8.38-2 11.09-16.83 16.18-24.374 6.99-10.354 18.9-22.76 33.04-17.541 8.75 4.393-1.26 19.977-4.83 24.025a165 165 0 0 1-3.08 3.39c14.19-1.83 34.68-2.12 41.17 13.65-13.45 27.04-45.65 14.46-51.37 18.02l2.92 4.03c11.03.8 22.08 1.28 33.14 1.44-16.78 17.84-35.46 40.81-51.63 59.64a5548 5548 0 0 0-70.23 82.25c-10.03 1.61-41.42 1.33-52.54 1.42l-16.23.1c-3.25-.02-7.28-.37-10.59-.56-4.37.84-20.74.63-26.3.61-23.37-.1-46.758-1.28-70.167-.98-7.061-1.33-20.395-.89-28.056-.89 4.66-22.33 9.279-48.89 17.096-70.26 7.921-21.66 37.346-35.42 54.227-49.97 8.77-7.55 17.36-15.96 25.86-24.09 8.09-8.89 15.98-19.16 23.29-28.73 10.05 5.96 47.34-2.27 60.33 4.75 9.49-3.27 18.25-5.46 28.02-7.6-1.44-6.27-3.3-12.355-5.12-18.527-19.67-6.985-31.94-30.116-27.51-48.132 7.92-32.258 32.84 2.064 35.76 16.948 1.81 9.189 2.73 18.588.44 26.348 2.55 7.65 4.38 14.903 6.38 22.683 10.99-23.661 24.35-50.702 33.21-74.93-8.76-3.334-32.11-10.468-27.1-23.799 7.74-6.32 17.44-1.156 24.59 3.26-2.15-9.124-4.2-14.231-8.2-22.592-13.87-2.934-20.11-5.54-30.98-17.747-7.99-8.965-18.19-42.093 4.85-40.044 8.37.744 18.96 14.653 23.68 22.516 10.31-42.209 42.29-4.773 12.14 31.749 4.16 10.126 6.55 17.3 9.78 27.669 5.37-12.511 34.47-79.424 34.16-87.459-4.73-7.417-42.44-6.786-44.41-24.422-2.75-24.63 30.47-5.217 39.44 1.485-6.28-13.387-12.15-23.394-21.23-34.964l-1.01-.016c-18.69-.412-35.15-7.302-48.42-20.855-6.18-6.319-21.79-28.214-10.53-35.918 17.97-12.3 40.33 16.129 47.39 17.378 1.89-6.143 3.05-11.329 7.87-15.741 8.62-2.254 12.68 10.059 14.57 16.715 1.18-2.347.82-4.187 1.83-7.524 4.27-46.953 34.64-42.261 32.68.711-.73 15.83-17.39 39.691-29.58 49.185 7.84 13.106 12.86 22.466 19.83 36.141 8.77-17.412 19.36-45.752 26.43-64.231l31.75-82.379c-1.41-4.619-3.17-9.31-4.8-13.871-5.89.512-11.81.828-18.27.097-14.39-1.043-39.66-17.269-35.86-34.149 2.88-12.813 23.51-5.631 30.57-2.846l.24-2.003c-22.64-13.1-34.79-28.077-42.7-53.603-5.84-18.838.71-44.035 24-27.5 11.8 8.381 21.83 23.108 26.86 36.743 1.61-7.602 4.93-20.955 11.79-24.737 15.27-8.419 20.34 14.03 20.11 23.64-.46 18.553-6.86 32.397-18.06 46.286 5.04 13.149 8.99 24.652 12.46 38.45 11.66-27.755 22.9-54.913 35.29-82.386 4.57-10.137 20.38-40.806 22.96-49.429-2.52-5.591-12.52-10.435-17.33-14.712-13.51-11.889-22.76-30.877-16.28-48.811 3.44-9.714 11.27-10.023 18.99-4.98 7.35 4.802 12.48 11.437 16.55 19.093 6.35 11.926 6.27 24.621 6.2 37.686a2901 2901 0 0 1 18.01-31.604"/><path fill="#cdbc99" d="M1131.45 1105.24c9.41-17.07 28.88-54.97 45.45-63.75 4.07 1.93 15.81 1.66 20.99 1.79 8.8 34.65 46.93 30.33 29.54-.26 11.03.8 22.08 1.28 33.14 1.44-16.78 17.84-35.46 40.81-51.63 59.64a5548 5548 0 0 0-70.23 82.25c-10.03 1.61-41.42 1.33-52.54 1.42 5.74-12.28 18.02-34.19 24.84-45.95 25.12 8.27 53.01 3.07 69.84-20.18 12.35-17.07-8.3-24.91-23.24-22.67-10.69 1.61-15.08 2.28-26.16 6.27"/><path fill="#e5d4b3" d="M1032.01 1041.73c10.05.78 19.02.61 28.87 1.09-53.08 35.07-82.684 77.53-98.252 139.23-.484 1.92-.611 3.15.255 4.89-7.061-1.33-20.395-.89-28.056-.89 4.66-22.33 9.279-48.89 17.096-70.26 7.921-21.66 37.346-35.42 54.227-49.97 8.77-7.55 17.36-15.96 25.86-24.09"/><path fill="#fbf0d9" d="M1055.3 1013c10.05 5.96 47.34-2.27 60.33 4.75-21.95 7.69-34.2 13.12-54.75 25.07-9.85-.48-18.82-.31-28.87-1.09 8.09-8.89 15.98-19.16 23.29-28.73"/><path fill="#fff" d="M1213.4 731.755c1.18-2.347.82-4.187 1.83-7.524 1.33 13.733 2.05 18.056 7.01 30.79-2.06 3.742-3.37 7.102-6.8 9.458l-2.03-.057c-2.52-4.495.78-22.599-.01-32.667"/><path fill="#fbf0d9" d="M1176.9 1041.49c6.37-3.03 13.97-8.12 20.06-6.12 1.83 3.01 1.06 3.62.93 7.91-5.18-.13-16.92.14-20.99-1.79"/><path fill="#cdbc99" d="m1075.18 1176.21-5.24 11.66c-3.25-.02-7.28-.37-10.59-.56 5.18-3.61 10.79-7.37 15.83-11.1"/><path fill="#fbf0d9" d="M1268.22 610.886c7.54 3.161 12.06 2.834 15.2 10.845l1.62 4.116c-6.38-6.014-9.16-8.867-17.06-12.958z"/><path fill="#91b255" d="M989.014 1174.68c29.346-38.92 66.616-71.97 105.576-100.98 3.64-2.71 15.73-12.76 18.83-13.2 1.54-4.03-113.745 107.24-121.017 113.91z"/><path fill="#6f973f" d="M1316.01 800.093c7.34-.153 14.05-.47 21.37.349l.65.998-2.78.61c-7.17.181-16.69.716-23.58-.163l-.14-.911zM980.692 1185.81c2.96-4.71 4.252-7.26 8.322-11.13l3.389-.27c-3.036 3.39-8.269 8.11-11.711 11.4"/><path fill="#56802d" d="M747.6 434.45c2.576 1.072 5.894 3.166 8.056 2.124 7.47-3.603 15.409-14.748 23.468-15.318l1.383 1.077c.684 5.968-3.536 10.197-7.219 15.411 5.463 2.029 8.772 3.077 12.85 7.493l-.962 1.004c-9.907 10.192-9.712 6.432-21.586 6.913-1.594 9.922 6.224 46.501 7.494 59.182 1.517-2.819 3.158-5.715 4.483-8.611 4.853 1.067 8.36-.786 11.78.905.674 3.661-.251 5.281-1.811 9.164l.449.972c5.437.162 11.873-.36 15.785 3.507 4.8 16.762-19.948 12.395-26.444 13.02-1.393 7.431 14.518 97.766 17.116 108.738 7.474-12.373 14.372-23.526 23.48-34.912-3.815-9.244-5.07-12.43-5.516-22.811 6.851-.866 13.79-5.041 19.014-.648 4.459-2.453 2.531-3.245 8.92-5.416 4.667 1.495 3.755 4.475 3.808 9.018l-5.091 9.056c8.838-3.229 29.605-11.238 35.42-.258.35 3.516-.088 6.083-2.544 8.768-12.876 14.077-28.965 15.242-45.81 11.357-10.082 12.685-28.932 37.116-26.065 53.526 4.342 24.843 9.246 54.848 15.406 79.228 4.131-6.575 6.301-9.951 8.954-17.166 1.501-4.081 4.604-15.006 6.441-17.992 2.71 2.661 2.073 2.849 5.217 3.617 1.965-1.769 1.923-3.141 2.566-5.788l1.286-.282c1.618 6.27.47 6.054 5.349 9.088l-5.399 11.375c9.719-6.413 21.279-12.04 33.238-10.342 6.714.954 10.168 8.077 6.45 13.552-11.9 17.526-30.315 18.949-48.171 13.85-7.743 10.535-12.192 16.8-9.123 30.252 12.098 53.036 21.482 111.043 37.431 162.863-.128-15.971.694-29.466 7.698-44.196 4.103-8.629 12.584-24.15 21.632-27.896 12.375.645 6.739 44.649 4.694 53.572-3.89 16.974-19.123 27.808-26.454 42.538 9.783 15.246 20.909 29.866 30.396 45.116a1039 1039 0 0 1 12.49-65.065c4.38-18.703 11.556-43.959 13.366-62.394 1.207-12.29-8.461-37.802-11.7-50.664a248 248 0 0 1-7.027-51.173c-2.437-89.842 40.685-158.327 86.511-230.863 6.484-10.264 15.011-38.147 21.881-44.394 1.56-.248 2.5-.671 4.2.985 20.81 20.318 34.6 75.519 38.37 101.957 10.43 73.04-2.15 152.475-46.63 211.91a249.6 249.6 0 0 1-35.692 38.073c-8.157 6.932-17.311 13.283-24.763 20.954-19.675 20.253-34.851 107.126-37.164 135.814 3.18 1.91 18.954 1.6 22.255.81-.482 9.67-.731 17.34-.498 27.06 1.5 19.04 5.335 34.5 7.151 52.43 1.052 10.38-5.618 33.89-8.182 44.99-3.54 15.32-7.14 29.95-9.786 45.79-5.243-.33-16.798.43-20.23-.74-5.114-.53-9.81-.56-15.296-1.22-3.147-3.18-6.273-6.38-9.38-9.59-36.368-37.88-41.564-76.66-40.584-126.74 1.001-9.62 2.353-18.52 3.822-28.06a392 392 0 0 1 10.068-37.536c-5.866-1.397-11.321-2.742-16.44-6.086-6.812-4.449-20.598-17.355-13.792-26.025 6.188-2.364 9.35-.205 15.336 2.273-10.101-10.445-30.463-32.154-25.512-47.874 7.778-7.582 23.46 10.833 28.38 16.897-5.041-22.436-28.99-138.823-35.268-149.777-3.153-5.503-9.905-9.275-15.128-12.623-12.637 6.948-22.021 9.928-36.832 6.262-12.064-2.986-18.174-16.46-4.641-22.364 10.821-4.721 23.514-1.027 34.093 3.174L765.9 732.53c-12.38-.041-37.907-2.335-44.182-14.828-.037-4.28-.207-2.743 1.982-6.804-.651-2.136-31.116-22.914-30.42-30.856 2.219-25.297 45.719 7.92 52.852 12.488 2.458-2.766 2.762-3.373 6.206-4.991 13.713-.648 19.97 24.248 20.953 35.287 9.586 8.565 16.278 15.27 25.196 24.511-5.773-25.754-11.598-59.284-16.189-85.404-10.086-10.867-27.093-23.322-39.392-31.977-9.149 6.832-15.836 8.989-27.387 8.7-6.875-.173-14.148-3.096-13.324-11.258 2.919-4.571 5.573-5.505 10.744-6.675-2.174-1.742-13.415-3.579-17.278-4.519a64 64 0 0 1-7.291-.905c-6.276-1.13-10.743-2.675-14.414-7.818-1.31-8.001 5.531-11.055 12.012-13.405l-5.735-2.622c-6.219-1.784-11.567-6.192-10.059-13.07-5.622-6.265-14.513-15.359-11.387-24.455 8.304-6.612 22.579 5.121 28.019 11.376 4.379 4.781 7.62 8.656 11.641 13.749 3.151 1.489 7 3.136 9.782 5.087l3.403 3.384c1.201-2.59-1.614-17.505 2.194-21.081 11.409-10.715 19.544 15.111 21.532 20.521 10.846 9.219 12.448 18.394 12.453 32.058 10.298 7.545 21.169 15.175 30.804 23.493-4.281-33.007-12.669-76.672-18.777-109.652-8.358 6.619-27.521 12.245-31.012-1.542 2.429-6.964 10.028-5.845 14.57-10.566l-1.879-1.773c-2.934-4.347-4.982-6.576-2.004-11.313 3.772-1.913 4.319-1.683 8.714-1.643l9.359 9.419c-2.379-20.51-5.746-41.863-8.869-62.312-9.946 7.481-19.573 9.218-27.418-2.416 5.164-4.009 8.183-6.866 14.472-8.407l2.267.196c3.037-1.231 7.022-5.602 9.562-8.057"/><path fill="#e5d4b3" d="M912.897 1042.99c6.341-.05 12.055-.45 18.371-.88 1.5 19.04 5.335 34.5 7.151 52.43 1.052 10.38-5.618 33.89-8.182 44.99-3.54 15.32-7.14 29.95-9.786 45.79-5.243-.33-16.798.43-20.23-.74 1.24-.14 2.385-.49 3.613-.8 2.859-3.64 3.013-5.17 4.986-8.95 21.877-41.94 20.093-87.47 4.077-131.84"/><path fill="#b689c5" d="M670.174 578.384c-5.622-6.265-14.513-15.359-11.387-24.455 8.304-6.612 22.579 5.121 28.019 11.376 4.379 4.781 7.62 8.656 11.641 13.749 3.151 1.489 7 3.136 9.782 5.087-2.135 6.405-2.712 10.146-8.452 13.849-1.922-1.478-2.67-1.882-4.743-3.154-3.736-2.143-10.686-4.645-14.801-3.382-6.219-1.784-11.567-6.192-10.059-13.07"/><path fill="#56802d" d="M670.174 578.384c-5.622-6.265-14.513-15.359-11.387-24.455 8.304-6.612 22.579 5.121 28.019 11.376-1.055 4.796-.286 5.37-3.21 7.908-7.597 1.206-8.067-.047-13.422 5.171M698.447 579.054c3.151 1.489 7 3.136 9.782 5.087-2.135 6.405-2.712 10.146-8.452 13.849-1.922-1.478-2.67-1.882-4.743-3.154-2.679-3.559-4.312-5.363-3.812-9.739 1.936-3.51 3.566-3.95 7.225-6.043"/><path fill="#b689c5" d="M711.632 587.525c1.201-2.59-1.614-17.505 2.194-21.081 11.409-10.715 19.544 15.111 21.532 20.521-2.463 5.423-2.69 16.188-2.943 22.185-11.555-7.456-12.695-10.182-20.783-21.625"/><path fill="#fbf0d9" d="M912.897 1042.99c-5.57-13.19-5.697-14.37-3.386-28.75 3.18 1.91 18.954 1.6 22.255.81-.482 9.67-.731 17.34-.498 27.06-6.316.43-12.03.83-18.371.88"/><path fill="#af81c3" d="M680.233 591.454c4.115-1.263 11.065 1.239 14.801 3.382 2.073 1.272 2.821 1.676 4.743 3.154l-1.008.812c-4.212 3.329-7.456 3.702-10.835 8.023-.204 5.171 3.641 6.562 7.727 9.379a64 64 0 0 1-7.291-.905c-6.276-1.13-10.743-2.675-14.414-7.818-1.31-8.001 5.531-11.055 12.012-13.405z"/><path fill="#91b255" d="m1006.42 590.295 2.16 1.975c-3 10.796-6.48 39.647-9.366 53.982a1795 1795 0 0 1-35.841 145.505c-5.726 19.824-17.637 59.213-27.625 76.522-2.523-7.635 55.643-196.601 58.41-222.747.758-7.162 10.392-43.864 12.072-54.013zM872.446 1041.25c8.161 42.19 21.631 94.08 23.49 136.89-9.941-29.8-14.646-61.34-19.379-92.31-1.857-12.15-3.19-29.66-5.928-41.17z"/><path fill="#6f973f" d="M1006.42 590.295c1.24-6.948 2.43-14.965 4.63-21.59.15 6.627-1.54 16.706-2.47 23.565zM868.589 1025.75c1.963 6.17 2.706 9.09 3.857 15.5l-1.817 3.41c-1.165-6.79-1.538-12.06-2.04-18.91"/><path fill="#56802d" d="M733.187 1024.22c-14.009-7.63-29.298-14.21-43.666-22.16a375.9 375.9 0 0 1-111.908-92.387 363.4 363.4 0 0 1-58.347-104.517c-13.951-38.604-24.384-79.658-50.261-112.454-2.503-3.171-6.372-9.094-5.96-13.138 8.151-6.134 23.481-7.616 33.569-7.44 128.642 2.247 249.701 106.538 290.92 225.242 13.546 39.014 17.282 78.52 17.715 119.014l1.454 3.75c7.124 2.14 23.056-1.46 32.08-1.16-1.469 9.54-2.821 18.44-3.822 28.06-.98 50.08 4.216 88.86 40.584 126.74 3.107 3.21 6.233 6.41 9.38 9.59-10.452-.15-19.337-.31-29.772-1.4-6.388 0-10.583-.25-16.95-.87-11.13-.94-21.889-.96-33.106-2.05-3.442-4.21-13.129-12.77-15.256-16.74-5.295-9.9-8.464-22.33-13.269-32.95-13.276-29.35-28.556-50.24-49.475-73.95-8.658-8.84-16.354-15.85-25.579-24.1 11.739-3.74 22.711-.47 31.669-7.08"/><path fill="#e5d4b3" d="M773.952 1049.64c6.547 5.49 16.465 14.41 20.732 21.82 17.186 29.85 33.766 77.05 43.519 109.63-11.13-.94-21.889-.96-33.106-2.05-3.442-4.21-13.129-12.77-15.256-16.74-5.295-9.9-8.464-22.33-13.269-32.95-13.276-29.35-28.556-50.24-49.475-73.95 9.412-.73 40.305-2.33 46.855-5.76M807.587 1048.17c8.827-.13 18.437-.8 27.374-1.14-.98 50.08 4.216 88.86 40.584 126.74 3.107 3.21 6.233 6.41 9.38 9.59-10.452-.15-19.337-.31-29.772-1.4-5.024-15.98-11.509-31.73-17.077-47.53-10.177-28.88-23.653-56.33-30.489-86.26"/><path fill="#fbf0d9" d="M733.187 1024.22c15.663 7.61 27.457 14.28 40.765 25.42-6.55 3.43-37.443 5.03-46.855 5.76-8.658-8.84-16.354-15.85-25.579-24.1 11.739-3.74 22.711-.47 31.669-7.08M805.249 1016.38l1.454 3.75c7.124 2.14 23.056-1.46 32.08-1.16-1.469 9.54-2.821 18.44-3.822 28.06-8.937.34-18.547 1.01-27.374 1.14-1.579-10.7-1.85-21.01-2.338-31.79"/><path fill="#91b255" d="M535.648 724.428c39.899 31.195 87.5 74.222 120.109 113.447 2.346 3.62 2.957 3.834 6.537 6.456l.515.787c43.818 52.328 84.658 106.618 115.351 167.912 4.468 8.92 9.455 18.61 11.809 28.55-22.449-33.47-42.764-68.712-65.23-102.34-18.103-27.099-36.73-50.21-56.519-75.624-2.228-3.071-4.31-6.77-7.625-8.303-34.181-40.877-84.851-95.894-126.478-129.684z"/><path fill="#6f973f" d="M573.019 836.073c4.89 1.018 9.947 2.291 14.791 3.545 24.055 6.225 48.571 10.309 72.785 15.695 3.315 1.533 5.397 5.232 7.625 8.303-3.582-2.29-21.106-5.5-26.198-6.722-19.944-4.789-51.32-11.058-69.003-20.821M655.757 837.875c.166-10.221-14.479-75.184-15.008-74.124 2.327 3.352 3.57 9.901 4.956 14.115 6.335 19.266 15.871 46.496 16.589 66.465-3.58-2.622-4.191-2.836-6.537-6.456M534.117 725.629a354 354 0 0 1-13.665-10.987l.79-1.797-.563-.295-1.117 1.113-.725-1.089.511-.529c5.727 2.671 11.522 8.102 16.3 12.383z"/><path fill="#56802d" d="M508.413 1774.69c6.815 1.41 31.358 18.25 39.3 22.47 36.91 19.62 75.32 38.96 116.57 47.3 28.037 5.78 56.721 2.16 84.787-1.61 67.58-9.09 136.956 4.26 186.461 54.14 14.411 14.53 31.4 35.18 38.851 54.73-38.059-28.88-75.08-39.98-121.139-46.53 8.601 3.22 15.906 5.9 24.224 9.88 37.979 18.74 69.684 42.9 92.801 78.7-43.659.5-82.654-1.46-125.557-11.39-103-23.82-201.15-79.95-280.545-148.91-15.765-13.69-44.774-41.4-55.753-58.78M931.766 1015.05c6.055-100.313 90.014-201.253 189.364-225.059 4.32-1.036 9.72-1.253 13.44 1.47.74 3.568-2.31 8.949-4.01 11.995-16.53 30.104-21.41 66.168-29.03 99.482-9.62 42.026-23.91 73.623-46.23 110.062-7.31 9.57-15.2 19.84-23.29 28.73-8.5 8.13-17.09 16.54-25.86 24.09-16.881 14.55-46.306 28.31-54.227 49.97-7.817 21.37-12.436 47.93-17.096 70.26-4.6-.05-9.74-.46-14.376-.73 2.646-15.84 6.246-30.47 9.786-45.79 2.564-11.1 9.234-34.61 8.182-44.99-1.816-17.93-5.651-33.39-7.151-52.43-.233-9.72.016-17.39.498-27.06"/><path fill="#91b255" d="m1071.76 853.996.61 1.075c-4.54 8.02-12.18 17.248-17.51 25.766a1057 1057 0 0 0-41.03 71.47 1190 1190 0 0 0-31.369 65.073c-8.076 18.28-16.449 39.18-25.441 56.73l-.417-.04-.443-1.1c20.656-78.047 66-155.728 115.6-218.974"/><path fill="#b689c5" d="M742.339 391.879c1.617-2.526 5.471-6.391 7.651-8.751l7.459 8.435c4.99-1.228 6.389-1.611 10.995-3.824l2.171 1.179c2.941 3.733 3.337 4.232 3.526 8.942l1.551 1.338c7.113-2.773 7.191-10.265 15.771-9.579 9.586 7.975.619 18.947-5.35 26.401 7.664-2.529 13.702-5.532 21.03-.399 27.179-10.647 25.221 20.683.888 19.465 2.136 16.506-13.584 9.459-21.893 10.151-4.078-4.416-7.387-5.464-12.85-7.493 3.683-5.214 7.903-9.443 7.219-15.411l-1.383-1.077c-8.059.57-15.998 11.715-23.468 15.318-2.162 1.042-5.48-1.052-8.056-2.124-2.54 2.455-6.525 6.826-9.562 8.057l-2.267-.196c-6.289 1.541-9.308 4.398-14.472 8.407-10.598 4.015-16.79 7.902-25.787-.398-24.3 3.331-23.665-24.205 1.303-17.094-1.273-2.629-1.558-3.646-2.424-6.379.898-3.835-.031-2.259 2.88-4.904 8.651-2.705 18.314 1.187 26.122 4.902-6.409-7.098-21.937-22.128-13.951-32.035 5.619-1.728 8.941 1.841 15.101 4.588.364-2.811.196-3.738 1.8-6.042l2.062-.09c7.11 3.495 10.661 15.136 13.787 22.714a1241 1241 0 0 0 .147-24.101"/><path fill="#56802d" d="M807.143 415.621c27.179-10.647 25.221 20.683.888 19.465-4.812-3.168-6.853-3.435-12.324-4.976 7.327-4.3 11.466-5.315 11.436-14.489M695.512 450.32c-24.3 3.331-23.665-24.205 1.303-17.094 4.364 2.921 6.267 3.615 11.069 5.639-6.467 2.974-10.151 4.305-12.372 11.455"/><path fill="#6f973f" d="M735.771 442.311c-3.397-4.861-8.515-8.886-8.625-14.97l1.557-1.092c5.68.763 13.62 5.368 18.897 8.201-2.54 2.455-6.525 6.826-9.562 8.057z"/><path fill="url(#b)" d="m768.444 387.739 2.171 1.179c-5.613 4.043-6.862 7.836-7.945 14.707a529 529 0 0 0-1.77 12.658c-1.94-9.164-1.817-16.707-3.451-24.72 4.99-1.228 6.389-1.611 10.995-3.824"/><path fill="#b689c5" d="M722.738 353.167a151 151 0 0 1-6.965-7.302c-6.481-7.358-14.18-19.689-2.535-26.152 13.37-1.931 21.62 17.778 28.265 20.891l2.065 4.03 4.738-.717c2.701-4.468 3.352-6.068 7.328-9.462l1.521 3.724 1.37.326c4.824-4.652 14.664-16.901 21.009-15.253 19.954 5.184-1.014 25.076-6.856 30.446 5.133-.557 10.5-1.483 14.857 1.667 2.646 9.803-11.51 13.657-13.902 16.817 2.969 7.861.405 10.241-5.189 15.557-4.606 2.213-6.005 2.596-10.995 3.824l-7.459-8.435c-2.18 2.36-6.034 6.225-7.651 8.751-10.083.949-22.873-3.811-17.515-16.22-5.067-3.48-24.791-12.541-19.408-22.248 5.812-2.949 11.391-1.72 17.322-.244"/><path fill="#b689c5" d="m755.634 334.455 1.521 3.724 1.37.326c4.824-4.652 14.664-16.901 21.009-15.253 19.954 5.184-1.014 25.076-6.856 30.446 5.133-.557 10.5-1.483 14.857 1.667 2.646 9.803-11.51 13.657-13.902 16.817-11.012.319-10.808 3.293-18.552 4.673-7.479-8.218 6.574-15.998 7.151-24.329-3.953-2.124-7.446 7.458-13.408 2.171-1.613-4.497-1.078-5.84-.518-10.78 2.701-4.468 3.352-6.068 7.328-9.462"/><path fill="#56802d" d="m743.568 344.634 4.738-.717c-.56 4.94-1.095 6.283.518 10.78 5.962 5.287 9.455-4.295 13.408-2.171-.577 8.331-14.63 16.111-7.151 24.329 7.744-1.38 7.54-4.354 18.552-4.673 2.969 7.861.405 10.241-5.189 15.557-4.606 2.213-6.005 2.596-10.995 3.824l-7.459-8.435c-2.18 2.36-6.034 6.225-7.651 8.751-10.083.949-22.873-3.811-17.515-16.22 7.73.106 10.696 2.629 17.834-2.02 2.452-8.175-17.047-18.145-11.09-25.668 4.388.934 5.9 5.6 11.822 8.01l1.338-1.062c.75-4.545.094-5.672-1.16-10.285"/><path fill="url(#c)" d="M858.057 530.809c5.766-10.537 22.366-34.578 36.253-30.922 11.583 8.778-4.101 34.495-11.488 42.721-5.901 6.57-13.272 12.318-20.015 18.05l1.943.29c6.665.95 10.361-1.257 15.758 3.907.626 1.916 1.216 3.526-.288 5.371-10.358 12.71-23.53 15.011-38.072 15.036-.053-4.543.859-7.523-3.808-9.018-6.389 2.171-4.461 2.963-8.92 5.416-5.224-4.393-12.163-.218-19.014.648l.051-1.03c.644-11.423 2.842-19.641 11.487-27.388l1.244-.374c1.892-3.388 3.039-6.325 6.884-7.241 3.78 1.35 4.983 3.29 7.814 6.354 1.503-8.41 3.657-24.173 13.615-26.066 4.14.977 3.007.867 6.556 4.246"/><path fill="#56802d" d="M858.057 530.809c5.766-10.537 22.366-34.578 36.253-30.922 11.583 8.778-4.101 34.495-11.488 42.721-5.901 6.57-13.272 12.318-20.015 18.05-1.478.57-11.543 7.074-13.506 8.313 7.691-14.029 10.954-21.932 8.756-38.162"/><path fill="#6f973f" d="M821.944 553.89c7.449 5.351 5.692 19.36 7.476 27.77-5.224-4.393-12.163-.218-19.014.648l.051-1.03c.644-11.423 2.842-19.641 11.487-27.388"/><path fill="#b689c5" d="M738.516 297.28c-.231-9.799-1.616-28.923 10.523-31.677 12.462 3.34 9.526 24.966 8.503 34.573 3.76-4.767 7.704-9.794 14.221-7.348 9.074 11.178-7.298 28.905-15.842 35.583l-.287 6.044c-3.976 3.394-4.627 4.994-7.328 9.462l-4.738.717-2.065-4.03c-.824-2.654-1.986-5.338-3.02-7.935l-.532-5.17c-7.489-8.171-17.237-21.659-17.528-33.338-.131-5.227 5.576-7.726 10.604-6.604 3.672 2.604 5.117 5.823 7.489 9.723"/><path fill="url(#d)" d="M738.483 332.669c.301-6.013 2.171-14.763 5.996-19.476 7.591-2.812 9.642 9.801 11.442 15.218l-.287 6.044c-3.976 3.394-4.627 4.994-7.328 9.462l-4.738.717-2.065-4.03c-.824-2.654-1.986-5.338-3.02-7.935"/><path fill="#b689c5" d="M732.85 483.701c.418-5.726-.12-13.941 7.502-13.466 10.732 7.551 10.237 24.316 7.875 35.792-4.395-.04-4.942-.27-8.714 1.643-2.978 4.737-.93 6.966 2.004 11.313-13.572.454-40.21-3.104-44.412-18.462 2.205-8.862 14.839-6.818 21.677-5.55l-.49-.605-.805-1.017c-4.759-5.921-8.683-10.215-5.398-17.941 8.406-6.399 15.426 2.329 20.761 8.293M775.567 503.725c-4.609-11.468-8.77-27.887.802-38.16 6.35-2.03 9.044 5.917 10.196 10.969q.45 2.026.809 4.071c5.009-6.958 11.658-17.539 21.749-13.525 4.779 6.116-.933 15.643-4.498 21.088 36.399-10.148 16.906 22.936-19.089 25.626 1.56-3.883 2.485-5.503 1.811-9.164-3.42-1.691-6.927.162-11.78-.905M840.56 691.762c3.457-8.073 11.416-29.684 23.1-23.42 10.226 14.196-7.054 42.327-20.383 50.074-4.879-3.034-3.731-2.818-5.349-9.088l-1.286.282c-.643 2.647-.601 4.019-2.566 5.788-3.144-.768-2.507-.956-5.217-3.617-2.753-8.38-9.888-28.648 2.891-33.131 7.557 1.314 7.515 6.472 8.81 13.112"/></svg>